<svg viewBox="0 0 400 620" id="p6" xmlns="http://www.w3.org/2000/svg" role="img" aria-label="Plate 6, drowned"><defs><radialGradient id="dgp6" cx="50%" cy="42%" r="72%"><stop offset="0" stop-color="#0A131C"/><stop offset="1" stop-color="#03060A"/></radialGradient><style>#p6 .fill{fill:#7A2318}#p6 .st{fill:none;stroke:#7A2318;stroke-linecap:round;stroke-linejoin:round}#p6 .paperfill{fill:#060A10}#p6 .paperst{fill:none;stroke:#060A10;stroke-linecap:round}</style></defs><rect width="400" height="620" fill="url(#dgp6)"/><path d="M0 300 Q100 288 200 300 T400 296" stroke="#16303F" stroke-width="1.4" fill="none" opacity=".7"/><path d="M0 334 Q120 320 200 334 T400 328" stroke="#16303F" stroke-width="1" fill="none" opacity=".5"/><g transform="translate(330 106) rotate(-7)" opacity=".55"><circle r="30" class="st" stroke-width="2.4"/><circle r="25.5" class="st" stroke-width=".9"/><g transform="scale(19)"><path d="M-.44 -.1 Q-.5 -.74 0 -.78 Q.5 -.74 .44 -.1 Q.36 .16 0 .2 Q-.36 .16 -.44 -.1 Z" class="fill"/><circle cx="-.2" cy="-.36" r=".1" class="paperfill"/><circle cx=".2" cy="-.36" r=".1" class="paperfill"/><path d="M-.34 .16 Q-.64 .5 -.5 .82 M-.12 .2 Q-.26 .58 -.1 .86 M.12 .2 Q.26 .58 .1 .86 M.34 .16 Q.64 .5 .5 .82" class="st" stroke-width=".11"/></g></g><text x="200" y="586" text-anchor="middle" fill="#7A2318" font-family="'JetBrains Mono',monospace" font-size="13" letter-spacing="3">DROWNED</text></svg>