<svg viewBox="0 0 400 620" id="p35" xmlns="http://www.w3.org/2000/svg" role="img" aria-label="Plate 35, dry dock"><defs><linearGradient id="vgp35" x1="0" y1="0" x2="1" y2="1"><stop offset="0" stop-color="#F4EDD8"/><stop offset="1" stop-color="#E2D8BE"/></linearGradient><filter id="grainp35" x="0" y="0" width="100%" height="100%"><feTurbulence type="fractalNoise" baseFrequency=".9" numOctaves="3" result="n"/><feColorMatrix in="n" type="saturate" values="0"/></filter><filter id="disp35" x="-35%" y="-30%" width="170%" height="165%" color-interpolation-filters="sRGB"><feTurbulence type="fractalNoise" baseFrequency="0.0100" numOctaves="4" seed="3519" result="n"/><feDisplacementMap in="SourceGraphic" in2="n" scale="4.0" xChannelSelector="R" yChannelSelector="G" result="w"/><feGaussianBlur in="w" stdDeviation="0.20" result="s"/><feColorMatrix in="s" type="saturate" values="1.00"/></filter><filter id="blep35" x="-55%" y="-45%" width="210%" height="195%" color-interpolation-filters="sRGB"><feTurbulence type="fractalNoise" baseFrequency="0.0055" numOctaves="3" seed="3530" result="n"/><feDisplacementMap in="SourceGraphic" in2="n" scale="31.6" xChannelSelector="R" yChannelSelector="G" result="w"/><feGaussianBlur in="w" stdDeviation="2.00"/></filter><style>#p35 .fill{fill:#7A2318}#p35 .st{fill:none;stroke:#7A2318;stroke-linecap:round;stroke-linejoin:round}#p35 .paperfill{fill:#E8E2D2}#p35 .paperst{fill:none;stroke:#E8E2D2;stroke-linecap:round}</style></defs><rect width="400" height="620" fill="#E8E2D2"/><g filter="url(#disp35)" opacity="1.00"><g opacity=".34"><path d="M-20 566 Q80 476 220 492 L358 504 Q400 510 410 544 L410 620 L-20 620 Z" class="fill"/><path d="M60 504 L52 430 M118 496 L112 418 M178 492 L174 442" class="st" stroke-width="7"/><path d="M44 540 h300" class="paperst" stroke-width="4"/><path d="M240 512 q30 -14 60 2" class="paperst" stroke-width="4"/></g><g transform="translate(94 508) scale(46)"><path d="M-1.85 1.5 Q-1.7 .08 -.95 -.7 Q0 -1.55 .95 -.7 Q1.7 .08 1.85 1.5 Z" class="paperfill" opacity=".82"/> <path d="M-.9 .3 L-.66 -.02 H.66 L.9 .3 Z" class="fill"/><path d="M-.62 -.06 L-.4 -.38 H.4 L.62 -.06 Z" class="fill"/><path d="M-.34 -.42 L-.16 -.72 H.16 L.34 -.42 Z" class="fill"/><path d="M-.9 .3 v.22 h1.8 v-.22" class="st" stroke-width=".08"/><circle cx="-0.14" cy="0.63" r="0.12" class="fill" opacity="0.45"/><circle cx="-0.58" cy="0.45" r="0.14" class="fill" opacity="0.51"/><circle cx="-0.50" cy="0.32" r="0.07" class="fill" opacity="0.58"/><circle cx="-0.44" cy="-0.06" r="0.08" class="fill" opacity="0.41"/><path d="M-1.66 .82 Q-.7 .5 0 .78 Q.76 1.06 1.66 .8 L1.66 1.5 H-1.66 Z" class="fill" opacity=".5"/><path d="M-1.66 .82 Q-.7 .5 0 .78 Q.76 1.06 1.66 .8" class="st" stroke-width=".05" opacity=".6"/></g><g transform="translate(232 132)"><path d="M0 0 Q90 -62 64 -178" class="st" stroke-width="6"/></g><path d="M112 202 Q112 100 200 100 Q288 100 288 202 Q244 224 200 224 Q156 224 112 202 Z" class="fill"/><path d="M112 202 q22 22 44 0 q22 22 44 0 q22 22 44 0 q22 22 44 0" class="st" stroke-width="7"/><path d="M148 128 Q152 178 142 202" class="paperst" stroke-width="4"/><path d="M200 112 Q200 170 200 214" class="paperst" stroke-width="4"/><path d="M252 128 Q248 178 258 202" class="paperst" stroke-width="4"/><path d="M164 220 Q158 300 176 356 Q190 400 170 452" class="st" stroke-width="9"/><path d="M188 224 Q182 320 196 392 Q206 440 196 496" class="st" stroke-width="9"/><path d="M212 224 Q222 320 210 392 Q204 424 236 448" class="st" stroke-width="9"/><path d="M236 220 Q246 300 228 356 Q214 400 236 456" class="st" stroke-width="9"/><path d="M134 210 Q108 288 126 344" class="st" stroke-width="5"/><path d="M266 210 Q292 288 274 344" class="st" stroke-width="5"/><g transform="translate(200 156) scale(62)"><path d="M-.88 -.32 Q0 -.54 .88 -.32 L.8 .34 Q0 .6 -.8 .34 Z" class="fill"/><path d="M-.7 -.24 Q0 -.42 .7 -.24 L.64 .2 Q0 .42 -.64 .2 Z" class="paperfill"/><path d="M-.88 -.12 H-1.34 M.88 -.12 H1.34" class="st" stroke-width=".11"/><path d="M.3 .5 Q.62 .92 .36 1.34" class="st" stroke-width=".13"/><circle cx=".36" cy="1.44" r=".16" class="fill"/></g><g transform="translate(236 450) rotate(4) scale(44)"><path d="M-.1 -2.0 L-.1 1.7" class="st" stroke-width=".14"/><path d="M-.1 -2.0 l-.3 .52 l.3 -.17 l.3 .17 z" class="fill"/><path d="M-.4 -1.4 l.3 .3 l.3 -.3" class="st" stroke-width=".1"/><path d="M-.46 .5 h.72" class="st" stroke-width=".12"/></g><circle cx="255" cy="110" r="2.9" class="fill" opacity="0.32"/><circle cx="46" cy="79" r="4.0" class="fill" opacity="0.21"/><circle cx="131" cy="86" r="3.6" class="fill" opacity="0.24"/><circle cx="251" cy="82" r="1.7" class="fill" opacity="0.43"/><circle cx="163" cy="281" r="3.2" class="fill" opacity="0.52"/><circle cx="121" cy="382" r="2.3" class="fill" opacity="0.48"/><circle cx="281" cy="314" r="1.9" class="fill" opacity="0.39"/><circle cx="4" cy="435" r="1.9" class="fill" opacity="0.41"/><circle cx="9" cy="80" r="1.7" class="fill" opacity="0.26"/><circle cx="45" cy="583" r="2.2" class="fill" opacity="0.50"/><circle cx="364" cy="165" r="1.5" class="fill" opacity="0.55"/><circle cx="381" cy="533" r="3.8" class="fill" opacity="0.25"/><circle cx="45" cy="550" r="1.4" class="fill" opacity="0.47"/><circle cx="276" cy="473" r="1.1" class="fill" opacity="0.52"/><circle cx="395" cy="604" r="4.2" class="fill" opacity="0.41"/><circle cx="89" cy="152" r="3.0" class="fill" opacity="0.46"/><circle cx="341" cy="125" r="3.8" class="fill" opacity="0.32"/><circle cx="25" cy="159" r="1.9" class="fill" opacity="0.25"/><circle cx="69" cy="576" r="3.2" class="fill" opacity="0.40"/><circle cx="340" cy="351" r="2.7" class="fill" opacity="0.34"/><circle cx="33" cy="452" r="4.3" class="fill" opacity="0.41"/><circle cx="13" cy="187" r="2.5" class="fill" opacity="0.21"/><circle cx="289" cy="450" r="2.1" class="fill" opacity="0.19"/><circle cx="374" cy="396" r="1.8" class="fill" opacity="0.21"/><circle cx="391" cy="518" r="4.0" class="fill" opacity="0.31"/><circle cx="142" cy="219" r="3.0" class="fill" opacity="0.32"/></g><g transform="translate(330 106) rotate(-7)" opacity=".55"><circle r="30" class="st" stroke-width="2.4"/><circle r="25.5" class="st" stroke-width=".9"/><g transform="scale(19)"><path d="M0 -.5 V.66" class="st" stroke-width=".12"/><path d="M-.36 -.5 V-.16 Q-.36 .04 0 .06 Q.36 .04 .36 -.16 V-.5" class="st" stroke-width=".12"/><path d="M-.36 -.5 l-.08 .12 M-.36 -.5 l.08 .12 M0 -.5 l-.08 .12 M0 -.5 l.08 .12 M.36 -.5 l-.08 .12 M.36 -.5 l.08 .12" class="st" stroke-width=".09"/></g></g><rect width="400" height="620" filter="url(#grainp35)" opacity=".055" style="mix-blend-mode:multiply"/><g font-family="'JetBrains Mono',monospace" fill="#7A2318" opacity=".5"><text x="20" y="600" font-size="11" letter-spacing="1.6">No. 0035 / 4444</text><text x="380" y="600" font-size="11" letter-spacing="1.6" text-anchor="end">SHIELDED</text></g></svg>