<svg viewBox="0 0 400 620" id="p12" xmlns="http://www.w3.org/2000/svg" role="img" aria-label="Plate 12, dry dock"><defs><linearGradient id="vgp12" x1="0" y1="0" x2="1" y2="1"><stop offset="0" stop-color="#F4EDD8"/><stop offset="1" stop-color="#E2D8BE"/></linearGradient><filter id="grainp12" x="0" y="0" width="100%" height="100%"><feTurbulence type="fractalNoise" baseFrequency=".9" numOctaves="3" result="n"/><feColorMatrix in="n" type="saturate" values="0"/></filter><filter id="disp12" x="-35%" y="-30%" width="170%" height="165%" color-interpolation-filters="sRGB"><feTurbulence type="fractalNoise" baseFrequency="0.0100" numOctaves="4" seed="5160" result="n"/><feDisplacementMap in="SourceGraphic" in2="n" scale="4.0" xChannelSelector="R" yChannelSelector="G" result="w"/><feGaussianBlur in="w" stdDeviation="0.20" result="s"/><feColorMatrix in="s" type="saturate" values="1.00"/></filter><filter id="blep12" x="-55%" y="-45%" width="210%" height="195%" color-interpolation-filters="sRGB"><feTurbulence type="fractalNoise" baseFrequency="0.0055" numOctaves="3" seed="5171" result="n"/><feDisplacementMap in="SourceGraphic" in2="n" scale="31.6" xChannelSelector="R" yChannelSelector="G" result="w"/><feGaussianBlur in="w" stdDeviation="2.00"/></filter><style>#p12 .fill{fill:#12100E}#p12 .st{fill:none;stroke:#12100E;stroke-linecap:round;stroke-linejoin:round}#p12 .paperfill{fill:#EFE7D0}#p12 .paperst{fill:none;stroke:#EFE7D0;stroke-linecap:round}</style></defs><rect width="400" height="620" fill="#EFE7D0"/><rect width="400" height="620" fill="url(#vgp12)"/><g filter="url(#disp12)" opacity="1.00"><g opacity=".3"><path d="M40 620 Q24 500 52 400 Q72 320 48 240" class="st" stroke-width="8"/><path d="M96 620 Q112 494 84 396 Q64 316 92 236" class="st" stroke-width="6"/><path d="M330 620 Q348 490 320 388 Q300 306 328 228" class="st" stroke-width="8"/><path d="M368 620 Q352 512 376 420" class="st" stroke-width="6"/><path d="M52 400 q28 -22 46 -6 M84 396 q-28 -24 -48 -8 M320 388 q28 -22 48 -6 M48 240 q26 -20 44 -4 M328 228 q-26 -20 -46 -4" class="st" stroke-width="5"/></g><g transform="translate(94 508) scale(46)"><path d="M-1.85 1.5 Q-1.7 .08 -.95 -.7 Q0 -1.55 .95 -.7 Q1.7 .08 1.85 1.5 Z" class="paperfill" opacity=".82"/> <path d="M.02 .92 Q-.04 .2 -.1 -.1" class="st" stroke-width=".12"/><path d="M-.44 -.12 Q-.5 -.72 -.2 -.94 Q-.1 -.5 0 -.92 Q.1 -.5 .2 -.94 Q.5 -.72 .44 -.12 Q0 .12 -.44 -.12 Z" class="fill"/><path d="M-.08 .34 Q-.6 .24 -.72 .66" class="st" stroke-width=".11"/><circle cx="-0.05" cy="-0.46" r="0.08" class="fill" opacity="0.48"/><circle cx="-0.01" cy="0.34" r="0.14" class="fill" opacity="0.32"/><circle cx="0.12" cy="0.34" r="0.15" class="fill" opacity="0.42"/><circle cx="-0.05" cy="-0.27" r="0.10" class="fill" opacity="0.42"/><path d="M-1.66 .82 Q-.7 .5 0 .78 Q.76 1.06 1.66 .8 L1.66 1.5 H-1.66 Z" class="fill" opacity=".5"/><path d="M-1.66 .82 Q-.7 .5 0 .78 Q.76 1.06 1.66 .8" class="st" stroke-width=".05" opacity=".6"/></g><g transform="translate(232 106)"><path d="M0 0 Q36 -30 46 -68" class="st" stroke-width="6"/><path d="M54 -96 Q64 -138 60 -178" class="st" stroke-width="6" opacity=".45"/></g><circle cx="200" cy="130" r="31" class="fill"/><path d="M188 158 h24 v16 h-24 z" class="fill"/><path d="M124 176 Q200 200 276 176 L286 212 Q200 242 114 212 Z" class="fill"/><path d="M126 212 Q140 330 152 400" class="st" stroke-width="7"/><path d="M274 212 Q260 330 248 400" class="st" stroke-width="7"/><path d="M152 400 L248 400" class="st" stroke-width="7"/><path d="M144 310 Q200 326 256 310" class="st" stroke-width="9"/><path d="M126 222 Q88 290 100 350" class="st" stroke-width="13"/><path d="M274 222 Q312 290 300 350" class="st" stroke-width="13"/><circle cx="100" cy="358" r="12" class="fill"/><circle cx="300" cy="358" r="12" class="fill"/><path d="M168 400 L158 514" class="st" stroke-width="15"/><path d="M232 400 L242 514" class="st" stroke-width="15"/><path d="M136 516 h44 v25 h-50 z" class="fill"/><path d="M264 516 h-44 v25 h50 z" class="fill"/><g transform="translate(200 130) scale(42)"><path d="M-.88 -.32 Q0 -.54 .88 -.32 L.8 .34 Q0 .6 -.8 .34 Z" class="fill"/><path d="M-.7 -.24 Q0 -.42 .7 -.24 L.64 .2 Q0 .42 -.64 .2 Z" class="paperfill"/><path d="M-.88 -.12 H-1.34 M.88 -.12 H1.34" class="st" stroke-width=".11"/><path d="M.3 .5 Q.62 .92 .36 1.34" class="st" stroke-width=".13"/><circle cx=".36" cy="1.44" r=".16" class="fill"/></g><g transform="translate(300 358) rotate(-14) scale(44)"><path d="M-.1 -2.0 L-.1 1.7" class="st" stroke-width=".14"/><path d="M-.1 -2.0 l-.3 .52 l.3 -.17 l.3 .17 z" class="fill"/><path d="M-.4 -1.4 l.3 .3 l.3 -.3" class="st" stroke-width=".1"/><path d="M-.46 .5 h.72" class="st" stroke-width=".12"/></g><g opacity="0.47" transform="translate(207 403) scale(0.85)"><path d="M0 0 q15 -8 30 0 q-13 6 -30 0 z" class="fill"/><path d="M30 0 l9 -6 v12 z" class="fill"/></g><g opacity="0.24" transform="translate(199 546) scale(0.75)"><path d="M0 0 q15 -8 30 0 q-13 6 -30 0 z" class="fill"/><path d="M30 0 l9 -6 v12 z" class="fill"/></g><g opacity="0.27" transform="translate(74 499) scale(0.73)"><path d="M0 0 q15 -8 30 0 q-13 6 -30 0 z" class="fill"/><path d="M30 0 l9 -6 v12 z" class="fill"/></g><g opacity="0.25" transform="translate(252 483) scale(0.99)"><path d="M0 0 q15 -8 30 0 q-13 6 -30 0 z" class="fill"/><path d="M30 0 l9 -6 v12 z" class="fill"/></g><g opacity="0.34" transform="translate(236 446) scale(0.56)"><path d="M0 0 q15 -8 30 0 q-13 6 -30 0 z" class="fill"/><path d="M30 0 l9 -6 v12 z" class="fill"/></g><g opacity="0.48" transform="translate(276 574) scale(0.92)"><path d="M0 0 q15 -8 30 0 q-13 6 -30 0 z" class="fill"/><path d="M30 0 l9 -6 v12 z" class="fill"/></g><g opacity="0.33" transform="translate(301 508) scale(0.77)"><path d="M0 0 q15 -8 30 0 q-13 6 -30 0 z" class="fill"/><path d="M30 0 l9 -6 v12 z" class="fill"/></g><g opacity="0.41" transform="translate(337 453) scale(0.50)"><path d="M0 0 q15 -8 30 0 q-13 6 -30 0 z" class="fill"/><path d="M30 0 l9 -6 v12 z" class="fill"/></g><g opacity="0.51" transform="translate(321 484) scale(1.00)"><path d="M0 0 q15 -8 30 0 q-13 6 -30 0 z" class="fill"/><path d="M30 0 l9 -6 v12 z" class="fill"/></g></g><g transform="translate(330 106) rotate(-7)" opacity=".55"><circle r="30" class="st" stroke-width="2.4"/><circle r="25.5" class="st" stroke-width=".9"/><g transform="scale(19)"><circle cx="0" cy="-.38" r=".22" class="st" stroke-width=".11"/><path d="M0 -.16 V.62 M0 .36 H.2 M0 .52 H.14" class="st" stroke-width=".11"/></g></g><rect width="400" height="620" filter="url(#grainp12)" opacity=".055" style="mix-blend-mode:multiply"/><g font-family="'JetBrains Mono',monospace" fill="#12100E" opacity=".5"><text x="20" y="600" font-size="11" letter-spacing="1.6">No. 0012 / 4444</text><text x="380" y="600" font-size="11" letter-spacing="1.6" text-anchor="end">SHIELDED</text></g></svg>