<svg viewBox="0 0 400 620" id="p1777" xmlns="http://www.w3.org/2000/svg" role="img" aria-label="Plate 1777, dry dock"><defs><linearGradient id="vgp1777" x1="0" y1="0" x2="1" y2="1"><stop offset="0" stop-color="#F4EDD8"/><stop offset="1" stop-color="#E2D8BE"/></linearGradient><filter id="grainp1777" x="0" y="0" width="100%" height="100%"><feTurbulence type="fractalNoise" baseFrequency=".9" numOctaves="3" result="n"/><feColorMatrix in="n" type="saturate" values="0"/></filter><filter id="disp1777" x="-35%" y="-30%" width="170%" height="165%" color-interpolation-filters="sRGB"><feTurbulence type="fractalNoise" baseFrequency="0.0100" numOctaves="4" seed="389" result="n"/><feDisplacementMap in="SourceGraphic" in2="n" scale="4.0" xChannelSelector="R" yChannelSelector="G" result="w"/><feGaussianBlur in="w" stdDeviation="0.20" result="s"/><feColorMatrix in="s" type="saturate" values="1.00"/></filter><filter id="blep1777" x="-55%" y="-45%" width="210%" height="195%" color-interpolation-filters="sRGB"><feTurbulence type="fractalNoise" baseFrequency="0.0055" numOctaves="3" seed="400" result="n"/><feDisplacementMap in="SourceGraphic" in2="n" scale="31.6" xChannelSelector="R" yChannelSelector="G" result="w"/><feGaussianBlur in="w" stdDeviation="2.00"/></filter><style>#p1777 .fill{fill:#5C3A1E}#p1777 .st{fill:none;stroke:#5C3A1E;stroke-linecap:round;stroke-linejoin:round}#p1777 .paperfill{fill:#EFE7D0}#p1777 .paperst{fill:none;stroke:#EFE7D0;stroke-linecap:round}</style></defs><rect width="400" height="620" fill="#EFE7D0"/><rect width="400" height="620" fill="url(#vgp1777)"/><g filter="url(#blep1777)" opacity="0"><g opacity=".3"><path d="M40 620 Q24 500 52 400 Q72 320 48 240" class="st" stroke-width="8"/><path d="M96 620 Q112 494 84 396 Q64 316 92 236" class="st" stroke-width="6"/><path d="M330 620 Q348 490 320 388 Q300 306 328 228" class="st" stroke-width="8"/><path d="M368 620 Q352 512 376 420" class="st" stroke-width="6"/><path d="M52 400 q28 -22 46 -6 M84 396 q-28 -24 -48 -8 M320 388 q28 -22 48 -6 M48 240 q26 -20 44 -4 M328 228 q-26 -20 -46 -4" class="st" stroke-width="5"/></g><g transform="translate(94 508) scale(46)"><path d="M-1.85 1.5 Q-1.7 .08 -.95 -.7 Q0 -1.55 .95 -.7 Q1.7 .08 1.85 1.5 Z" class="paperfill" opacity=".82"/> <path d="M-.5 .82 Q-.62 .1 -.3 -.2 L-.08 -.5 Q.12 -.78 .42 -.68 L.7 -.48 Q.8 -.26 .58 -.14 L.48 .02 Q.4 .5 .2 .82 Z" class="fill"/><path d="M.28 -.7 L.5 -1.32 L.62 -.6 Z" class="fill"/><circle cx=".34" cy="-.34" r=".1" class="paperfill"/><path d="M-.32 -.08 Q-.08 .12 .1 .32" class="paperst" stroke-width=".09"/><circle cx="-0.07" cy="0.73" r="0.10" class="fill" opacity="0.52"/><circle cx="0.80" cy="-0.04" r="0.12" class="fill" opacity="0.58"/><circle cx="0.32" cy="0.34" r="0.06" class="fill" opacity="0.34"/><circle cx="0.11" cy="-0.08" r="0.15" class="fill" opacity="0.39"/><path d="M-1.66 .82 Q-.7 .5 0 .78 Q.76 1.06 1.66 .8 L1.66 1.5 H-1.66 Z" class="fill" opacity=".5"/><path d="M-1.66 .82 Q-.7 .5 0 .78 Q.76 1.06 1.66 .8" class="st" stroke-width=".05" opacity=".6"/></g><g transform="translate(232 88)"><path d="M0 0 Q90 -62 64 -178" class="st" stroke-width="11" stroke-dasharray="13 9" stroke-linecap="butt"/></g><path d="M164 118 Q164 74 200 74 Q236 74 236 118 Q236 146 224 158 L176 158 Q164 146 164 118 Z" class="fill"/><ellipse cx="184" cy="118" rx="11" ry="13" class="paperfill"/><ellipse cx="216" cy="118" rx="11" ry="13" class="paperfill"/><path d="M196 134 l4 10 l4 -10" class="paperst" stroke-width="3"/><path d="M178 160 h44 v12 h-44 z" class="fill"/><path d="M200 172 L200 356" class="st" stroke-width="9"/><path d="M200 196 Q152 206 142 246" class="st" stroke-width="6"/><path d="M200 196 Q248 206 258 246" class="st" stroke-width="6"/><path d="M200 220 Q156 232 148 268" class="st" stroke-width="6"/><path d="M200 220 Q244 232 252 268" class="st" stroke-width="6"/><path d="M200 244 Q162 256 156 288" class="st" stroke-width="6"/><path d="M200 244 Q238 256 244 288" class="st" stroke-width="6"/><path d="M178 186 Q126 226 118 306" class="st" stroke-width="7"/><path d="M222 186 Q274 226 282 300" class="st" stroke-width="7"/><path d="M158 356 Q200 380 242 356 L236 388 Q200 404 164 388 Z" class="fill"/><path d="M176 396 L164 510" class="st" stroke-width="9"/><path d="M224 396 L236 510" class="st" stroke-width="9"/><path d="M148 514 h36" class="st" stroke-width="9"/><path d="M216 514 h36" class="st" stroke-width="9"/><g transform="translate(200 112) scale(44)"><path d="M-1 .05 A1 1 0 0 1 1 .05 L1 .62 Q0 .92 -1 .62 Z" class="fill"/><circle cy=".08" r=".5" class="paperfill"/><circle cy=".08" r=".5" class="st" stroke-width=".08"/><path d="M0 -.42 V.58" class="st" stroke-width=".07"/><circle cx="-.78" cy=".2" r=".08" class="paperfill"/><circle cx=".78" cy=".2" r=".08" class="paperfill"/><path d="M-1.16 .62 Q0 1.0 1.16 .62 L1.22 1.02 Q0 1.42 -1.22 1.02 Z" class="fill"/></g><g transform="translate(282 300) rotate(-6) scale(44)"><path d="M0 -.1 V.5" class="st" stroke-width=".1"/><path d="M-.44 .5 h.88 v.88 h-.88 z" class="fill"/><path d="M-.27 .65 h.54 v.58 h-.54 z" class="paperfill"/><circle cy=".94" r=".52" class="st" stroke-width=".05"/><circle cy=".94" r=".8" class="st" stroke-width=".04"/></g><g opacity=".5"><path d="M300 470 q34 -19 68 0 q-30 12 -68 0 z" class="fill"/><path d="M368 470 l20 -13 v26 z" class="fill"/><circle cx="318" cy="468" r="2.6" class="paperfill"/></g></g><g filter="url(#disp1777)" opacity="1.00"><g opacity=".3"><path d="M40 620 Q24 500 52 400 Q72 320 48 240" class="st" stroke-width="8"/><path d="M96 620 Q112 494 84 396 Q64 316 92 236" class="st" stroke-width="6"/><path d="M330 620 Q348 490 320 388 Q300 306 328 228" class="st" stroke-width="8"/><path d="M368 620 Q352 512 376 420" class="st" stroke-width="6"/><path d="M52 400 q28 -22 46 -6 M84 396 q-28 -24 -48 -8 M320 388 q28 -22 48 -6 M48 240 q26 -20 44 -4 M328 228 q-26 -20 -46 -4" class="st" stroke-width="5"/></g><g transform="translate(94 508) scale(46)"><path d="M-1.85 1.5 Q-1.7 .08 -.95 -.7 Q0 -1.55 .95 -.7 Q1.7 .08 1.85 1.5 Z" class="paperfill" opacity=".82"/> <path d="M-.5 .82 Q-.62 .1 -.3 -.2 L-.08 -.5 Q.12 -.78 .42 -.68 L.7 -.48 Q.8 -.26 .58 -.14 L.48 .02 Q.4 .5 .2 .82 Z" class="fill"/><path d="M.28 -.7 L.5 -1.32 L.62 -.6 Z" class="fill"/><circle cx=".34" cy="-.34" r=".1" class="paperfill"/><path d="M-.32 -.08 Q-.08 .12 .1 .32" class="paperst" stroke-width=".09"/><circle cx="-0.07" cy="0.73" r="0.10" class="fill" opacity="0.52"/><circle cx="0.80" cy="-0.04" r="0.12" class="fill" opacity="0.58"/><circle cx="0.32" cy="0.34" r="0.06" class="fill" opacity="0.34"/><circle cx="0.11" cy="-0.08" r="0.15" class="fill" opacity="0.39"/><path d="M-1.66 .82 Q-.7 .5 0 .78 Q.76 1.06 1.66 .8 L1.66 1.5 H-1.66 Z" class="fill" opacity=".5"/><path d="M-1.66 .82 Q-.7 .5 0 .78 Q.76 1.06 1.66 .8" class="st" stroke-width=".05" opacity=".6"/></g><g transform="translate(232 88)"><path d="M0 0 Q90 -62 64 -178" class="st" stroke-width="11" stroke-dasharray="13 9" stroke-linecap="butt"/></g><path d="M164 118 Q164 74 200 74 Q236 74 236 118 Q236 146 224 158 L176 158 Q164 146 164 118 Z" class="fill"/><ellipse cx="184" cy="118" rx="11" ry="13" class="paperfill"/><ellipse cx="216" cy="118" rx="11" ry="13" class="paperfill"/><path d="M196 134 l4 10 l4 -10" class="paperst" stroke-width="3"/><path d="M178 160 h44 v12 h-44 z" class="fill"/><path d="M200 172 L200 356" class="st" stroke-width="9"/><path d="M200 196 Q152 206 142 246" class="st" stroke-width="6"/><path d="M200 196 Q248 206 258 246" class="st" stroke-width="6"/><path d="M200 220 Q156 232 148 268" class="st" stroke-width="6"/><path d="M200 220 Q244 232 252 268" class="st" stroke-width="6"/><path d="M200 244 Q162 256 156 288" class="st" stroke-width="6"/><path d="M200 244 Q238 256 244 288" class="st" stroke-width="6"/><path d="M178 186 Q126 226 118 306" class="st" stroke-width="7"/><path d="M222 186 Q274 226 282 300" class="st" stroke-width="7"/><path d="M158 356 Q200 380 242 356 L236 388 Q200 404 164 388 Z" class="fill"/><path d="M176 396 L164 510" class="st" stroke-width="9"/><path d="M224 396 L236 510" class="st" stroke-width="9"/><path d="M148 514 h36" class="st" stroke-width="9"/><path d="M216 514 h36" class="st" stroke-width="9"/><g transform="translate(200 112) scale(44)"><path d="M-1 .05 A1 1 0 0 1 1 .05 L1 .62 Q0 .92 -1 .62 Z" class="fill"/><circle cy=".08" r=".5" class="paperfill"/><circle cy=".08" r=".5" class="st" stroke-width=".08"/><path d="M0 -.42 V.58" class="st" stroke-width=".07"/><circle cx="-.78" cy=".2" r=".08" class="paperfill"/><circle cx=".78" cy=".2" r=".08" class="paperfill"/><path d="M-1.16 .62 Q0 1.0 1.16 .62 L1.22 1.02 Q0 1.42 -1.22 1.02 Z" class="fill"/></g><g transform="translate(282 300) rotate(-6) scale(44)"><path d="M0 -.1 V.5" class="st" stroke-width=".1"/><path d="M-.44 .5 h.88 v.88 h-.88 z" class="fill"/><path d="M-.27 .65 h.54 v.58 h-.54 z" class="paperfill"/><circle cy=".94" r=".52" class="st" stroke-width=".05"/><circle cy=".94" r=".8" class="st" stroke-width=".04"/></g><g opacity=".5"><path d="M300 470 q34 -19 68 0 q-30 12 -68 0 z" class="fill"/><path d="M368 470 l20 -13 v26 z" class="fill"/><circle cx="318" cy="468" r="2.6" class="paperfill"/></g></g><g transform="translate(330 106) rotate(-7)" opacity=".55"><circle r="30" class="st" stroke-width="2.4"/><circle r="25.5" class="st" stroke-width=".9"/><g transform="scale(19)"><circle r=".74" class="fill"/><path d="M-.06 -.54 V.18" class="paperst" stroke-width=".08"/><path d="M-.02 -.5 Q.46 -.1 .04 .16 Z" class="paperfill"/><path d="M-.1 -.28 Q-.46 -.02 -.12 .16 Z" class="paperfill"/><path d="M-.5 .32 H.5 M-.38 .5 H.38" class="paperst" stroke-width=".08"/></g></g><rect width="400" height="620" filter="url(#grainp1777)" opacity=".055" style="mix-blend-mode:multiply"/><g font-family="'JetBrains Mono',monospace" fill="#5C3A1E" opacity=".5"><text x="20" y="600" font-size="11" letter-spacing="1.6">No. 1777 / 2222</text><text x="380" y="600" font-size="11" letter-spacing="1.6" text-anchor="end">DRY DOCK</text></g></svg>